# xmcd CD database file
#
# Track frame offsets:
#	150
#	19345
#	37205
#
# Disc length: 751 seconds
#
# Revision: 1
# Processed by: cddbd v1.5.1PL0 Copyright (c) Steve Scherf et al.
# Submitted via: CDex 1.51
#
DISCID=2302ed03
DTITLE=佐野元春 - 約束の橋
DYEAR=1992
DGENRE=JPop
TTITLE0=約束の橋
TTITLE1=SWEET 16
TTITLE2=約束の橋（オリジナルカラオケ）
EXTD=YEAR: 1992
EXTT0=
EXTT1=
EXTT2=
PLAYORDER=
